<svg width="273" height="376" viewBox="0 0 273 376" fill="none" xmlns="http://www.w3.org/2000/svg">
<path opacity="0.11" d="M202.716 333.906C163.662 365.204 114.834 379.425 65.2311 373.955C-37.3379 362.646 -111.583 269.999 -100.271 167.433C-94.8058 117.825 -70.2858 73.2714 -31.2313 41.9741C7.8233 10.6767 56.6457 -3.54476 106.251 1.92732C131.32 4.68875 155.114 12.3012 176.972 24.5417C198.08 36.3643 216.498 51.984 231.71 70.9656C246.921 89.9473 258.153 111.326 265.092 134.503C272.279 158.505 274.522 183.384 271.757 208.455C266.287 258.063 241.77 302.614 202.718 333.909L202.716 333.906ZM203.462 332.275L203.393 332.268L204.49 331.359C241.165 300.998 264.632 258.337 270.558 211.232L270.71 210.023L270.748 210.07L270.889 208.692L270.921 208.352L271.137 206.644L271.081 206.689L271.196 205.477C275.672 158.215 262.068 111.463 232.888 73.8408L231.999 72.6945L232.055 72.698L231.093 71.5276L230.072 70.2114L230.061 70.2826L229.155 69.1881C198.799 32.5136 156.138 9.047 109.028 3.11554L107.823 2.96119L107.867 2.92585L106.489 2.7846L106.205 2.75598L104.441 2.53736L104.488 2.59617L103.276 2.48126C56.0131 -1.98996 9.26419 11.613 -28.3591 40.7976L-29.4818 41.6683L-29.4754 41.6101L-30.5158 42.4631L-30.7187 42.6257L-31.9797 43.6073L-31.9108 43.6149L-33.0053 44.5209C-69.686 74.8817 -93.1506 117.546 -99.0765 164.651L-99.2285 165.859L-99.2662 165.812L-99.4075 167.191L-99.4431 167.562L-99.6577 169.241L-99.5988 169.194L-99.7132 170.401C-104.194 217.67 -90.5886 264.422 -61.4066 302.042L-60.5594 303.135L-60.623 303.128L-59.7416 304.204L-59.579 304.407L-58.5716 305.7L-58.5634 305.626L-57.6809 306.691C-27.3197 343.366 15.3416 366.833 62.4488 372.761L63.6572 372.913L63.6101 372.951L64.9886 373.092L65.3282 373.124L67.0362 373.339L66.9891 373.281L68.2015 373.396C115.463 377.872 162.215 364.267 199.836 335.085L200.961 334.211L200.955 334.27L201.995 333.417L202.192 333.259L203.459 332.273L203.462 332.275ZM125.175 323.614L65.5068 371.431L17.6904 311.763L-58.3134 303.383L-49.9327 227.379L-97.7492 167.711L-38.0808 119.894L-29.7001 43.8908L46.3037 52.2709L105.972 4.45405L153.789 64.122L229.792 72.5021L221.409 148.508L269.225 208.176L209.557 255.993L201.176 331.997L125.172 323.617L125.175 323.614ZM200.528 330.537L208.666 256.707L167.679 289.553L200.525 330.539L200.528 330.537ZM199.893 331.04L167.052 290.06L126.072 322.901L199.893 331.04ZM204.195 203.263C200.332 233.189 185.391 260.331 162.134 279.693L160.72 280.869L167.177 288.926L267.65 208.41L204.433 201.44L204.197 203.266L204.195 203.263ZM166.543 289.43L160.086 281.373L158.63 282.496C134.669 300.974 104.93 309.637 74.8834 306.89L73.0494 306.723L66.0788 369.939L166.543 289.43ZM65.2766 369.848L72.2472 306.632L70.4232 306.398C40.5002 302.534 13.3581 287.598 -6.00122 264.344L-7.17768 262.93L-15.2321 269.385L65.2766 369.848ZM180.291 115.049C198.771 139.013 207.437 168.754 204.687 198.798L204.518 200.629L267.729 207.598L187.222 107.138L179.168 113.593L180.291 115.049ZM11.5652 95.3838C-13.1979 115.228 -28.7466 143.48 -32.2126 174.937C-35.681 206.392 -26.6614 237.352 -6.817 262.115C13.0274 286.878 41.2764 302.423 72.7339 305.889C104.188 309.357 135.151 300.34 159.914 280.496C184.677 260.651 200.223 232.402 203.694 200.945C210.866 135.907 163.787 77.1593 98.7485 69.9882C67.2939 66.5201 36.3336 75.5399 11.5705 95.3844L11.5652 95.3838ZM220.692 147.614L228.833 73.7877L187.852 106.629L220.695 147.612L220.692 147.614ZM16.9711 310.871L-15.872 269.888L-56.8497 302.727L16.9769 310.867L16.9711 310.871ZM99.2346 69.251L101.061 69.4872C130.987 73.3498 158.126 88.2877 177.485 111.547L178.661 112.961L186.719 106.504L106.208 6.03757L99.237 69.2539L99.2346 69.251ZM-15.7411 268.75L-7.6867 262.295L-8.80785 260.842C-27.2903 236.881 -35.9534 207.137 -33.2031 177.088L-33.0357 175.254L-96.2497 168.287L-15.7411 268.75ZM228.329 73.1584L154.502 65.0183L187.345 106.002L228.329 73.1584ZM-57.354 302.097L-16.3733 269.257L-49.2163 228.273L-57.354 302.097ZM11.3844 94.5195L12.8406 93.3959C36.805 74.911 66.5493 66.2476 96.5979 68.9978L98.4318 69.1652L105.405 5.95173L4.93217 86.4681L11.3867 94.5224L11.3844 94.5195ZM-32.9498 174.451L-32.7136 172.625C-28.8485 142.702 -13.9156 115.562 9.34067 96.2055L10.7545 95.029L4.29759 86.9718L-96.1633 167.479L-32.9493 174.446L-32.9498 174.451ZM4.42551 85.8358L45.4121 52.9902L-28.4169 44.8472L4.42611 85.8305L4.42551 85.8358ZM-37.1845 119.181L3.79329 86.3425L-29.0497 45.3592L-37.1868 119.178L-37.1845 119.181Z" fill="#BDA078"/>
</svg>
