<svg width="33" height="78" viewBox="0 0 33 78" fill="none" xmlns="http://www.w3.org/2000/svg">
<path d="M32.253 74.2249C30.7446 73.8918 29.2443 73.4063 27.6657 72.7408C27.6469 72.7319 27.6 72.679 27.5853 72.6314C27.428 72.0951 27.3753 71.5547 27.4238 70.9794C27.7329 67.3064 25.5457 63.4362 22.2237 61.7769C22.1531 61.741 22.0794 61.71 21.9945 61.6753L21.9158 61.6427C21.8409 61.6107 21.7498 61.624 21.6894 61.6725C21.6241 61.7228 21.5917 61.8049 21.605 61.8872L21.6959 62.4504C21.7766 62.9487 21.8556 63.4364 21.9314 63.9245L21.9505 64.0523C22.1638 65.4395 22.3843 66.874 22.8139 68.2521C23.2016 69.4955 23.7997 70.4766 24.6317 71.2284C22.8741 70.192 21.2363 68.9465 19.7488 67.5141C19.7176 67.484 19.6805 67.4043 19.6752 67.3386L19.6353 66.3556C19.6351 66.3206 19.6346 66.2278 19.6544 66.1819C20.3871 64.4751 20.5747 62.5539 20.2286 60.3088C19.8947 58.1435 18.9703 56.1524 17.4805 54.3903C17.3061 54.184 17.1523 54.0796 17.0231 54.0796C16.9917 54.0796 16.9632 54.0859 16.9408 54.0975C16.8723 54.1316 16.8259 54.1975 16.8168 54.2738L16.777 54.6167C16.7462 54.8712 16.7166 55.1211 16.69 55.3714C16.6441 55.8125 16.5938 56.2528 16.5432 56.6934L16.5359 56.757C16.4101 57.857 16.2795 58.9946 16.2105 60.1335C16.1303 61.4622 16.1541 63.014 16.9394 64.4495C16.9436 64.4567 16.9474 64.4644 16.9516 64.4716C15.8599 63.1066 14.8634 61.6375 13.9744 60.0809C13.8958 59.9424 13.889 59.8209 13.9037 59.6447C13.9669 58.8995 14.3133 58.2939 14.6781 57.7507C15.3828 56.699 15.8094 55.4558 16.0613 53.7197C16.4136 51.2917 16.0578 48.856 15.0047 46.4797C14.9758 46.4142 14.942 46.351 14.9058 46.2832L14.8236 46.1279C14.7842 46.0522 14.7 46.0023 14.6112 46.0062C14.5226 46.0109 14.4445 46.0671 14.4124 46.1487C14.1569 46.793 13.9098 47.4137 13.6643 48.0298L13.5075 48.4235C12.9839 49.7385 12.3967 51.2737 12.0554 52.8577C11.8149 53.9754 11.8002 55.0542 12.0112 56.0813C11.1925 54.1327 10.5195 52.0737 10.0041 49.9387C9.9983 49.9149 9.99644 49.8534 10.0475 49.7114C10.2885 49.0518 10.7275 48.4536 11.2836 48.0273C12.5011 47.0934 13.1918 45.7955 13.7068 44.6491C14.7611 42.3046 15.0471 39.8138 14.5809 37.0341C14.576 37.0049 14.5671 36.976 14.5567 36.9446L14.5483 36.9194C14.528 36.8571 14.4818 36.8068 14.4208 36.7804C14.3611 36.7555 14.286 36.7602 14.2396 36.783C14.193 36.8 14.1224 36.8259 14.0765 36.8933C13.8126 37.2457 13.5448 37.6014 13.2767 37.9569L13.2317 38.0168C12.5557 38.9145 11.8566 39.8423 11.1848 40.7665C10.4065 41.8344 9.85681 42.8724 9.50412 43.94C9.33395 44.4556 9.22276 44.9519 9.17031 45.434C8.9463 43.7018 8.81926 41.9332 8.79152 40.15C8.78499 39.7243 8.83907 39.3861 9.12976 39.0157C9.43745 38.6208 9.72487 38.4003 10.1211 38.2548C11.7494 37.66 12.7939 36.4028 13.5219 35.3741C14.6979 33.71 15.3877 31.7736 15.6306 29.4542C15.6564 29.2155 15.6711 28.974 15.6863 28.7185L15.69 28.6605C15.6972 28.5362 15.7049 28.4069 15.7147 28.2698C15.7208 28.1789 15.6721 28.0936 15.5907 28.0523C15.5119 28.0127 15.411 28.0243 15.3425 28.0824L15.1492 28.2479C15.0765 28.3099 15.0142 28.363 14.9497 28.4148C14.6394 28.664 14.328 28.9106 14.0159 29.1579L13.9832 29.1836C13.2981 29.7262 12.5895 30.2873 11.9128 30.8668C10.5997 31.9867 9.75424 33.1014 9.2519 34.3753C9.16892 34.5853 9.09619 34.793 9.03372 34.9986C9.24025 32.9743 9.57568 30.9808 10.0363 29.0467C10.0922 28.8101 10.1235 28.7407 10.2384 28.7029C10.3107 28.6784 10.378 28.6314 10.4272 28.5731C10.7613 28.1933 11.2011 28.1332 11.6272 28.1246C13.0492 28.0912 14.1769 27.3819 15.0923 26.6924C17.3369 25.0019 18.8824 20.7128 18.8824 20.5673C18.8824 20.4916 18.8446 20.421 18.7805 20.3783C18.7173 20.3366 18.632 20.3307 18.5677 20.3594C18.1001 20.5578 17.6325 20.751 17.1483 20.9513C16.083 21.393 14.9816 21.8494 13.9238 22.3485C12.8592 22.8522 12.0179 23.5259 11.4165 24.3548C11.9897 22.7261 12.6543 21.1294 13.3984 19.5948C13.4839 19.4293 13.8858 19.2536 14.462 19.2536C14.6494 19.2536 14.831 19.2736 14.9879 19.3114C16.3418 19.6359 17.6842 19.4391 19.17 18.6967C20.6901 17.9368 21.9512 16.6943 23.0253 14.8973C23.0459 14.8626 23.0862 14.7565 23.1079 14.6971C23.1351 14.6243 23.1242 14.5442 23.079 14.4833C23.037 14.4255 22.9699 14.391 22.8843 14.391C22.8836 14.391 22.8831 14.391 22.8824 14.391L22.3458 14.4248C22.0169 14.4456 21.6976 14.4658 21.3782 14.4822L21.0372 14.4994C20.019 14.5507 18.9658 14.6034 17.9355 14.8488C16.7604 15.1313 15.8977 15.5652 15.2362 16.2085C16.0192 14.9052 16.8576 13.6651 17.7409 12.5036C17.7646 12.4728 17.8786 12.4257 17.9721 12.4101C18.0187 12.3991 18.1884 12.3635 18.4141 12.3635C18.7134 12.3635 18.9754 12.4243 19.1975 12.5465C20.609 13.2367 22.1941 13.288 23.9151 12.6968C25.3268 12.2145 26.5224 11.3187 27.5704 9.959C27.6044 9.91517 27.6352 9.86739 27.6632 9.81704C27.6951 9.75899 27.6972 9.69512 27.6692 9.63685C27.5881 9.46668 27.2371 9.38673 27.0893 9.36015C26.7266 9.29675 26.3156 9.22448 25.9081 9.16924C25.7214 9.14313 25.5345 9.11586 25.3471 9.08812L25.323 9.08439C24.6881 8.99068 24.0316 8.89371 23.3703 8.86038C22.1619 8.7986 21.0889 9.04523 20.2108 9.59116C20.8013 8.96271 21.4046 8.36643 22.0172 7.80628C22.2109 7.62958 22.43 7.45149 22.7286 7.22795C22.7517 7.21023 22.8104 7.18948 22.8824 7.18529C24.9988 7.10254 26.7599 6.16825 28.2658 4.32953C29.086 3.32858 29.715 2.06608 30.1889 0.469786L30.2052 0.415006C30.2558 0.247171 30.2837 0.154861 30.1674 0.0467008C30.0777 -0.0367506 29.9196 -0.0120408 29.5089 0.150666C29.1359 0.294025 28.7606 0.433189 28.3753 0.576082C27.6012 0.863033 26.8005 1.15977 26.0277 1.49498C24.7363 2.05629 23.7051 2.90712 22.9631 4.02346C22.3981 4.87289 22.1747 5.72629 22.2799 6.62794C22.2792 6.63796 22.2703 6.66197 22.2689 6.66477C20.9209 7.82866 19.6323 9.13894 18.3092 10.6984C19.1915 9.34943 19.7665 7.79626 20.0551 5.99576C20.346 4.18057 20.3645 2.56493 20.1118 1.05674C20.0957 0.962335 20.074 0.867928 20.0463 0.749744L20.005 0.567689C19.9864 0.489599 19.9276 0.426428 19.8505 0.402185C19.7733 0.379341 19.6868 0.399621 19.6292 0.4544C19.5369 0.541348 19.4465 0.623401 19.3581 0.703123L19.2959 0.759301C19.0698 0.963035 18.8563 1.15535 18.663 1.37283C16.7854 3.49105 15.6902 5.72839 15.3152 8.21281C15.1443 9.33568 15.2152 10.2916 15.532 11.1345C15.6369 11.4138 15.8005 11.6632 15.9634 11.9108C16.038 12.0238 16.1126 12.1374 16.1809 12.2539C16.2313 12.3376 16.2355 12.3593 16.2352 12.3553C16.2042 12.6875 16.1597 13.0577 16.0996 13.502C16.097 13.5075 16.0886 13.5206 16.0618 13.556L16.0401 13.5861C15.0133 15.0134 14.066 16.5181 13.2135 18.0755C13.5487 16.9123 13.8156 15.44 13.7967 13.7292C13.7739 11.6772 13.3014 9.84711 12.3517 8.13356C12.3142 8.06689 12.2461 8.02353 12.1508 8.01701C12.0816 8.01701 12.0149 8.05127 11.9713 8.10978C11.9429 8.14941 11.914 8.1867 11.8864 8.22214C11.8251 8.30139 11.7678 8.37645 11.7165 8.45664C10.9603 9.64244 10.5547 10.9499 10.2855 11.9567C9.7934 13.8031 9.56729 15.3449 9.57382 16.809C9.57755 18.0535 9.80436 19.0102 10.2878 19.8198C10.4382 20.0718 10.6275 20.2923 10.8177 20.5142C10.9186 20.6319 11.0223 20.7529 11.1163 20.8769C11.182 20.9632 11.2137 21.051 11.2156 21.1C11.2279 21.3951 11.2214 21.6951 11.2151 21.9851L11.2107 22.1856C11.21 22.2201 11.2021 22.2597 11.1902 22.29C10.5832 23.7606 10.0496 25.2891 9.59456 26.8588C9.66147 26.3243 9.69923 25.8068 9.70879 25.3019C9.7638 22.4361 8.88476 19.8769 7.09545 17.6943L6.72249 17.24C6.67936 17.1866 6.61549 17.1563 6.54743 17.1563L6.51013 17.1596C6.43041 17.1729 6.36327 17.2281 6.33553 17.3034C6.3015 17.3941 6.26817 17.4796 6.23576 17.5624C6.17329 17.7223 6.11432 17.8738 6.06443 18.0279C5.68051 19.2305 5.49216 20.5443 5.45393 22.287L5.45323 22.321C5.42456 23.5888 5.38517 25.3257 5.90592 26.9877C6.41852 28.6239 7.3225 29.4507 7.49779 29.5992L7.51644 29.616C7.9936 30.0419 8.30433 30.4314 8.36867 30.6843C8.39454 30.7864 8.42088 30.8887 8.45165 30.9899C8.58779 31.44 8.5027 31.8689 8.41086 32.3321C8.36517 32.5659 8.31762 32.8074 8.30107 33.0552C8.23533 34.0468 8.15468 35.0552 8.07659 36.0303L8.0696 36.1205C8.04955 36.3693 8.0295 36.618 8.00969 36.8667C7.81062 34.6354 7.07168 32.6072 5.80033 30.8134C5.02176 29.716 4.09354 28.777 3.04084 28.022C2.99538 27.9894 2.9476 27.9602 2.88372 27.9223C2.85272 27.9043 2.81682 27.8829 2.77323 27.8556C2.7075 27.8162 2.62311 27.8127 2.55528 27.8458C2.48582 27.8796 2.43803 27.9484 2.4301 28.0262C2.41588 28.1672 2.39933 28.3038 2.38185 28.4456C2.34665 28.7358 2.31332 29.0099 2.31192 29.2915C2.2963 32.2104 2.91379 34.9457 4.14785 37.4203C4.49168 38.1108 4.946 38.708 5.49869 39.1961C6.04672 39.6775 6.6381 39.9614 7.30548 40.0635C7.32017 40.0661 7.35513 40.0873 7.36049 40.0915C7.39662 40.164 7.43415 40.2367 7.47168 40.3096C7.60502 40.5672 7.74278 40.8337 7.81132 41.1008C7.86843 41.3267 7.86843 41.5735 7.86843 41.8351C7.86843 41.9309 7.86843 42.0274 7.87146 42.122C7.93556 44.3831 8.01971 45.1706 8.38149 47.1909C8.16074 46.5902 7.88358 45.9878 7.52576 45.4083C6.07679 43.0631 4.23596 41.4712 1.89816 40.5423C1.74944 40.4824 1.60025 40.4393 1.42729 40.3889L1.39279 40.3786C1.32263 40.3581 1.24826 40.3362 1.16878 40.312C1.09698 40.2884 1.01516 40.3045 0.956651 40.353C0.898375 40.4013 0.867839 40.4752 0.875531 40.5521C0.892781 40.7125 0.904669 40.8684 0.915625 41.0206C0.939635 41.3544 0.962246 41.6696 1.04313 41.9815C1.79746 44.895 3.04597 47.2156 4.85975 49.076C5.63529 49.8714 6.45255 50.3273 7.35816 50.4702C7.5866 50.5059 7.86586 50.5103 8.3386 50.4809L8.47473 50.4728C8.49548 50.4716 8.51366 50.4704 8.53021 50.4704C8.56751 50.4704 8.57054 50.4704 8.59641 50.5087L9.22976 51.3784C9.23792 51.3898 9.2498 51.4311 9.25796 51.4595L9.26729 51.4907C9.92464 53.7192 10.7403 55.8656 11.7021 57.9027C11.2692 57.3053 10.7948 56.7598 10.2661 56.2468C7.83486 53.8877 3.67814 53.8194 3.21217 53.8194L3.15413 53.8199L3.11753 53.8267C3.00331 53.8672 2.94153 53.9894 2.97673 54.1043C3.00914 54.2127 3.03944 54.3222 3.07417 54.4509C3.14061 54.6926 3.2096 54.9423 3.30634 55.1838C3.76696 56.3349 4.51359 57.4421 5.6565 58.6696C6.44183 59.5112 7.32716 60.3645 8.47846 60.9042C9.73932 61.4963 10.8778 61.6408 12.01 61.3508C12.2025 61.3002 12.424 61.2361 12.6144 61.1126C12.7501 61.0256 12.7872 61.0284 12.9205 61.1277C13.0785 61.2452 13.2466 61.3438 13.4098 61.4394C13.5 61.4923 13.5909 61.5457 13.6758 61.5993C13.6893 61.6107 13.7182 61.658 13.7289 61.6755C14.7448 63.3324 15.8639 64.8723 17.0723 66.277C16.4187 65.8015 15.7476 65.4574 15.0348 65.2283C12.8564 64.5264 10.5731 64.6157 8.31179 65.49C7.97426 65.6208 7.60432 65.819 7.57961 65.8329C7.52786 65.867 7.4922 65.922 7.48101 65.9852C7.47122 66.0472 7.4873 66.1106 7.52506 66.1591C7.5957 66.2509 7.66399 66.3432 7.7316 66.4348L7.74651 66.4549C7.8992 66.6628 8.07216 66.898 8.2661 67.1064C9.13954 68.0428 10.2167 68.6705 11.2508 69.2095C12.6727 69.9472 14.1268 70.3447 15.573 70.3913C15.6411 70.3936 15.7091 70.395 15.777 70.395C17.1073 70.395 18.1458 69.9566 18.9462 69.0598C18.956 69.0528 18.9908 69.0395 19.0099 69.0393C19.3157 69.0612 19.6064 69.1057 19.8237 69.1419C19.8579 69.1479 19.9001 69.1684 19.9264 69.1922C21.2638 70.3761 22.6801 71.4153 24.1596 72.2997C23.9354 72.2333 23.7044 72.1755 23.468 72.1291C21.8869 71.8251 20.2733 72.0158 18.5015 72.7198C17.3061 73.1962 16.1944 73.8962 15.1028 74.8597C15.0128 74.9387 15.0003 75.0746 15.0744 75.1688C15.4606 75.6604 15.9632 75.9357 16.404 76.1399C17.4791 76.6394 18.6926 76.9592 20.1153 77.1182C20.1195 77.1185 20.5766 77.1581 21.2176 77.1581C21.6803 77.1581 22.1109 77.1373 22.4967 77.0965C22.8654 77.0578 23.2333 76.9947 23.5901 76.9089C25.2293 76.5098 26.3401 75.6893 26.9765 74.4154C26.9879 74.4044 27.0368 74.376 27.0988 74.3608C27.3946 74.2874 27.6609 74.2356 27.914 74.2019C27.9737 74.1923 28.048 74.2084 28.1417 74.2461C29.2737 74.6823 30.4716 75.0457 31.6998 75.3259C31.7171 75.3301 31.735 75.3322 31.753 75.3322C31.8355 75.3322 31.9115 75.2867 31.9516 75.2126C32.0689 74.9944 32.2117 74.7851 32.3761 74.5904C32.4276 74.5291 32.443 74.4475 32.4176 74.372C32.3933 74.2988 32.3318 74.2433 32.253 74.2249Z" fill="#CC9500"/>
</svg>
